<?xml version="1.0" standalone="no"?>
<!DOCTYPE svg PUBLIC "-//W3C//DTD SVG 20010904//EN"
 "http://www.w3.org/TR/2001/REC-SVG-20010904/DTD/svg10.dtd">
<svg version="1.0" xmlns="http://www.w3.org/2000/svg"
 width="435.000000pt" height="251.000000pt" viewBox="0 0 435.000000 251.000000"
 preserveAspectRatio="xMidYMid meet">

<g transform="translate(0.000000,251.000000) scale(0.100000,-0.100000)"
fill="#000000" stroke="none">
<path d="M1890 2499 c-51 -12 -80 -34 -80 -60 0 -18 79 -321 85 -327 5 -5 61
58 76 85 9 17 7 37 -10 103 -13 45 -21 84 -18 86 12 12 171 15 233 5 89 -15
144 -32 144 -43 0 -5 -33 -48 -72 -97 -40 -48 -145 -176 -233 -285 -88 -108
-162 -196 -165 -196 -3 0 -41 131 -83 292 -43 161 -85 300 -94 310 -22 25 -41
23 -93 -12 -111 -73 -236 -227 -287 -352 -28 -68 -66 -198 -60 -204 4 -5 110
-25 111 -22 1 2 9 34 19 72 10 39 33 102 51 140 46 95 171 244 190 225 3 -2
39 -137 80 -298 42 -162 83 -305 91 -318 26 -39 65 -31 112 25 175 209 575
706 584 725 22 50 -11 75 -165 128 -49 18 -90 22 -216 25 -85 2 -175 -2 -200
-7z"/>
<path d="M2601 2317 l-34 -51 24 -15 c13 -8 60 -51 104 -95 63 -63 90 -100
122 -166 23 -47 45 -98 49 -114 7 -29 6 -29 -27 -23 -359 62 -586 98 -607 95
-16 -2 -32 -13 -40 -28 -14 -24 -4 -47 203 -460 119 -239 224 -443 233 -452
31 -36 68 -23 139 50 115 116 193 256 229 409 20 89 9 107 -78 122 -199 34
-269 43 -274 38 -4 -4 9 -32 27 -64 l34 -57 85 -14 c47 -8 86 -15 88 -17 1 -1
-8 -32 -21 -68 -30 -81 -96 -192 -139 -235 l-33 -31 -169 334 c-94 184 -168
336 -165 338 2 2 137 -18 299 -45 162 -27 305 -46 317 -43 36 9 44 35 32 102
-33 179 -145 359 -304 491 l-61 49 -33 -50z"/>
<path d="M1500 1520 c-135 -3 -246 -7 -247 -8 -2 -1 -10 -13 -18 -26 -15 -22
-15 -30 -2 -73 45 -149 126 -282 236 -385 83 -79 113 -95 144 -81 19 9 195
242 205 273 2 6 -25 10 -65 10 l-68 0 -49 -70 c-27 -39 -55 -70 -62 -70 -14 0
-82 74 -126 138 -37 54 -91 162 -84 169 3 3 90 7 193 9 558 12 554 12 549 -3
-3 -8 -78 -118 -166 -244 -182 -261 -187 -268 -171 -297 36 -68 355 -83 530
-26 71 24 181 76 181 86 0 5 -11 29 -26 53 l-25 44 -72 -34 c-112 -53 -186
-70 -314 -69 -62 0 -115 3 -119 6 -3 4 49 85 117 180 67 95 151 213 186 262
64 91 73 117 49 149 -13 17 -33 18 -272 15 -143 -2 -369 -5 -504 -8z"/>
<path d="M1380 471 c0 -50 -3 -59 -20 -64 -28 -7 -29 -77 -1 -77 16 0 19 -10
23 -69 9 -116 60 -171 160 -171 l48 0 0 40 0 40 -44 0 c-61 0 -86 31 -86 106
l0 54 66 0 65 0 -3 38 -3 37 -62 3 -63 3 0 59 0 60 -40 0 -40 0 0 -59z"/>
<path d="M4010 310 l0 -220 40 0 c35 0 40 3 40 23 0 12 13 38 29 57 l28 34 33
-57 c31 -56 33 -57 76 -57 24 0 44 2 44 4 0 3 -23 43 -50 91 -28 48 -47 92
-43 98 3 7 23 32 43 57 57 70 57 70 7 70 -43 0 -46 -2 -103 -75 l-59 -75 -3
135 -3 135 -39 0 -40 0 0 -220z"/>
<path d="M60 305 l0 -215 145 0 145 0 0 40 0 40 -105 0 -105 0 0 45 0 45 70 0
70 0 0 40 0 40 -70 0 -70 0 0 45 0 44 103 3 102 3 0 40 0 40 -142 3 -143 3 0
-216z"/>
<path d="M1640 306 l0 -216 123 0 c103 0 127 3 154 20 60 36 79 108 44 166
-18 29 -18 31 0 53 37 45 17 130 -38 167 -23 15 -53 19 -155 22 l-128 4 0
-216z m252 99 c18 -41 -8 -59 -92 -63 l-70 -4 0 46 0 46 75 0 c71 0 76 -1 87
-25z m0 -171 c19 -41 -16 -64 -98 -64 l-64 0 0 45 0 45 75 0 c72 0 76 -1 87
-26z"/>
<path d="M784 406 c-79 -35 -116 -146 -75 -228 29 -59 63 -81 131 -86 59 -4
103 10 130 43 11 13 9 20 -15 45 -28 30 -29 30 -49 11 -26 -23 -66 -36 -66
-22 0 6 15 28 33 48 78 89 107 131 101 146 -8 23 -84 57 -125 57 -19 -1 -48
-7 -65 -14z m86 -71 c0 -11 -83 -115 -91 -115 -13 0 -11 44 2 74 6 13 21 29
33 34 23 12 56 15 56 7z"/>
<path d="M2106 398 c-55 -32 -81 -79 -81 -148 0 -105 67 -166 171 -158 33 3
62 12 74 23 20 18 21 18 43 -3 13 -12 26 -22 30 -22 10 0 8 308 -2 314 -4 3
-16 -3 -26 -14 -17 -19 -18 -19 -48 2 -44 32 -113 34 -161 6z m115 -68 c27
-15 51 -65 43 -94 -15 -62 -95 -89 -138 -47 -32 32 -28 96 7 127 30 26 57 30
88 14z"/>
<path d="M2824 400 c-108 -55 -115 -227 -12 -290 45 -27 120 -27 165 1 l34 21
15 -21 c8 -11 19 -21 25 -21 5 0 9 66 9 160 0 88 -4 160 -8 160 -5 0 -17 -9
-27 -19 -17 -20 -17 -20 -45 1 -41 30 -106 34 -156 8z m127 -89 c47 -47 36
-111 -24 -136 -36 -15 -82 -3 -97 25 -19 35 -12 89 15 115 33 33 70 32 106 -4z"/>
<path d="M3210 409 c-62 -26 -100 -85 -100 -154 0 -97 63 -165 153 -165 165 0
228 203 95 303 -31 23 -111 32 -148 16z m93 -80 c76 -35 51 -159 -32 -161 -72
-2 -109 95 -56 147 26 27 51 31 88 14z"/>
<path d="M3729 397 c-44 -24 -46 -24 -57 -6 -27 43 -32 16 -32 -186 l0 -205
40 0 40 0 0 54 0 54 38 -14 c70 -24 149 9 185 77 24 45 19 138 -9 176 -54 72
-129 91 -205 50z m126 -82 c53 -52 16 -149 -56 -147 -104 3 -103 172 1 172 19
0 40 -9 55 -25z"/>
<path d="M386 343 c14 -37 38 -102 54 -143 15 -41 31 -83 35 -93 6 -14 17 -17
48 -15 l41 3 58 150 c31 83 57 153 58 158 0 4 -20 7 -44 7 l-44 0 -32 -96
c-18 -52 -35 -92 -39 -89 -3 4 -20 46 -37 93 l-32 87 -46 3 -46 3 26 -68z"/>
<path d="M1030 250 l0 -160 40 0 40 0 0 103 c0 114 10 137 62 137 47 0 58 -26
58 -138 l0 -102 40 0 40 0 0 106 c0 121 -14 165 -64 195 -37 23 -106 25 -145
4 -26 -13 -30 -13 -41 0 -7 8 -16 15 -21 15 -5 0 -9 -72 -9 -160z"/>
<path d="M2410 250 l0 -160 40 0 40 0 0 103 c0 114 10 137 63 137 48 0 57 -21
57 -136 l0 -104 40 0 40 0 0 110 c0 125 -11 159 -63 190 -39 24 -114 26 -145
4 -21 -15 -25 -15 -41 0 -10 9 -21 16 -24 16 -4 0 -7 -72 -7 -160z"/>
<path d="M3492 158 c-7 -7 -12 -24 -12 -38 0 -31 17 -50 45 -50 28 0 45 19 45
50 0 31 -17 50 -45 50 -12 0 -26 -5 -33 -12z"/>
</g>
</svg>
